# xmcd CD database file
#
# Track frame offsets:
#	150
#	27002
#	60730
#	77972
#	113760
#	126084
#
# Disc length: 2046 seconds
#
# Revision: 0
# Processed by: cddbd v1.5.2PL0 Copyright (c) Steve Scherf et al.
# Submitted via: CDex 1.51
#
DISCID=4607fc06
DTITLE=Nemeth - Film
DYEAR=2008
DGENRE=Jazz
TTITLE0=Via L4-Norte
TTITLE1=Field
TTITLE2=Transitions
TTITLE3=Luukkaankangas
TTITLE4=Soprus
TTITLE5=Ortem Ende
EXTD=YEAR: 2008
EXTT0=
EXTT1=
EXTT2=
EXTT3=
EXTT4=
EXTT5=
PLAYORDER=
